<svg width="25" height="24" viewBox="0 0 25 24" fill="none" xmlns="http://www.w3.org/2000/svg">
<path d="M22.2682 2L18.3382 2.78L21.0782 6.32L23.0482 5.92L22.2682 2ZM15.3982 3.36L13.4282 3.75L16.1782 7.28L18.1382 6.89L15.3982 3.36ZM10.4982 4.32L8.52816 4.73L11.2782 8.26L13.2382 7.87L10.4982 4.32ZM5.58816 5.32L4.60816 5.51C4.08854 5.61382 3.63136 5.9196 3.337 6.3602C3.04264 6.80081 2.93516 7.34022 3.03816 7.86L3.42816 9.82L8.32816 8.85L5.58816 5.32ZM3.42816 9.82V19.82C3.42816 20.93 4.32816 21.82 5.42816 21.82H21.4282C22.5382 21.82 23.4282 20.93 23.4282 19.82V9.82H3.42816Z" fill="white"/>
</svg>
