<svg width="74" height="74" viewBox="0 0 74 74" fill="none" xmlns="http://www.w3.org/2000/svg">
<path d="M54.1667 66.6767H8.16667V19.8333H35V12.1667H8.16667C3.95 12.1667 0.5 15.6167 0.5 19.8333V65.8333C0.5 70.05 3.95 73.5 8.16667 73.5H54.1667C58.3833 73.5 61.8333 70.05 61.8333 65.8333V39H54.1667V66.6767Z" fill="white"/>
<path d="M61.8333 0.666656H54.1666V12.1667H42.6666C42.705 12.205 42.6666 19.8333 42.6666 19.8333H54.1666V31.295C54.205 31.3333 61.8333 31.295 61.8333 31.295V19.8333H73.3333V12.1667H61.8333V0.666656Z" fill="white"/>
<path d="M46.5 27.5H15.8334V35.1667H46.5V27.5Z" fill="white"/>
<path d="M15.8334 39V46.6667H46.5V39H35H15.8334Z" fill="white"/>
<path d="M46.5 50.5H15.8334V58.1667H46.5V50.5Z" fill="white"/>
</svg>
