<svg width="110" height="107" viewBox="0 0 110 107" fill="none" xmlns="http://www.w3.org/2000/svg">
<path d="M70.6666 28.7866L55.9999 9.95998L66.5066 7.87998L81.1199 26.7066L70.6666 28.7866ZM107.307 21.5333L103.147 0.626648L82.1866 4.78665L96.7999 23.6666L107.307 21.5333ZM14.1866 18.3333L8.95994 19.3466C3.19994 20.52 -0.533393 26.12 0.586607 31.88L2.66661 42.3333L28.7999 37.16L14.1866 18.3333ZM54.9866 31.9333L40.3733 13L29.8666 15.1866L44.5333 34.0133L54.9866 31.9333ZM2.66661 42.3333V95.6666C2.66661 101.587 7.46661 106.333 13.3333 106.333H65.6533C62.9333 101.64 61.3333 96.2 61.3333 90.3333C61.3333 72.68 75.6799 58.3333 93.3333 58.3333C99.1999 58.3333 104.64 59.9333 109.333 62.6533V42.3333H2.66661ZM82.6666 106.333L109.333 90.3333L82.6666 74.3333V106.333Z" fill="url(#paint0_linear_1_25079)"/>
<defs>
<linearGradient id="paint0_linear_1_25079" x1="54.8607" y1="0.626648" x2="54.8607" y2="106.333" gradientUnits="userSpaceOnUse">
<stop stop-color="#8FCEA1"/>
<stop offset="0.0001" stop-color="#8ECEA2"/>
<stop offset="1" stop-color="#03B4E4"/>
</linearGradient>
</defs>
</svg>
