<svg width="81" height="82" viewBox="0 0 81 82" fill="none" xmlns="http://www.w3.org/2000/svg">
<path d="M32.0333 11.02C31.2283 12.515 30.5 14.0483 29.8867 15.62L35.7517 21.485C37.3233 17.1917 39.4317 13.1667 42 9.44832C45.1817 14.0483 47.75 19.185 49.3217 24.6667H38.9333L46.6 32.3333H50.97C51.2 33.905 51.3533 35.5533 51.4683 37.2017L59.02 44.7533C59.135 43.1817 59.25 41.61 59.25 40C59.25 37.3933 59.02 34.8633 58.7133 32.3333H71.67C72.2833 34.7867 72.6667 37.355 72.6667 40C72.6667 42.645 72.2833 45.2133 71.67 47.6667H61.9333L74.5833 60.24C78.1867 54.375 80.3333 47.4367 80.3333 40C80.3333 18.9167 63.0833 1.66665 42 1.66665C34.5633 1.66665 27.625 3.81332 21.76 7.41665L27.3567 13.1667C28.8517 12.285 30.5 11.5567 32.0333 11.02ZM68.5267 24.6667H57.2183C55.9917 19.875 54.2283 15.275 51.9283 11.02C58.9817 13.435 64.8467 18.3033 68.5267 24.6667ZM5.16167 0.631653L0.255005 5.49999L11.5633 16.8083C6.61834 23.2483 3.66667 31.2983 3.66667 40C3.66667 61.0833 20.9167 78.3333 42 78.3333C50.74 78.3333 58.7517 75.3817 65.23 70.475L75.8867 81.1317L80.755 76.2633L5.16167 0.631653ZM17.0833 22.2517L19.4217 24.6667H15.4733C15.9333 23.8233 16.47 23.0567 17.0833 22.2517ZM12.33 47.6667C11.7167 45.2133 11.3333 42.645 11.3333 40C11.3333 37.355 11.7167 34.7867 12.33 32.3333H25.2867C24.98 34.8633 24.75 37.3933 24.75 40C24.75 42.6067 24.98 45.1367 25.2867 47.6667H12.33ZM15.4733 55.3333H26.6667C28.0083 60.125 29.7333 64.725 32.0333 68.98C25.0183 66.565 19.115 61.6583 15.4733 55.3333ZM32.4167 40C32.4167 39.2333 32.4167 38.505 32.5317 37.7767L42.4217 47.6667H33.03C32.6467 45.1367 32.4167 42.6067 32.4167 40ZM42 70.5133C38.8183 65.9133 36.25 60.815 34.6783 55.3333H49.3217C47.75 60.815 45.1817 65.9133 42 70.5133ZM51.9283 68.98C53.3467 66.3733 54.4967 63.575 55.4167 60.7383L59.71 64.9167C57.3333 66.6417 54.7267 68.0217 51.9283 68.98Z" fill="white"/>
</svg>
