<svg width="81" height="82" viewBox="0 0 81 82" fill="none" xmlns="http://www.w3.org/2000/svg">
<path d="M46.6 32.3333H80.3333V66.0667L46.6 32.3333ZM78.8 17.3833L75.7333 2.43333L60.7833 5.5L71.1333 18.9167L78.8 17.3833ZM41.2333 24.6667L30.8833 11.25L26.2833 12.0167L39.3167 25.05L41.2333 24.6667ZM5.20001 0.516663L0.216675 5.5L10.1833 15.4667L8.26667 15.85C4.05001 16.6167 1.36667 20.8333 2.13334 24.6667L3.66667 32.3333L23.2167 28.5L27.05 32.3333H3.66667V70.6667C3.66667 74.8833 7.11667 78.3333 11.3333 78.3333H73.05L75.7333 81.0167L80.7167 76.0333L5.20001 0.516663ZM60.0167 21.2167L49.6667 7.41666L42 8.95L52.7333 22.3667L60.0167 21.2167Z" fill="white"/>
</svg>
