<svg width="87" height="79" viewBox="0 0 87 79" fill="none" xmlns="http://www.w3.org/2000/svg">
<path d="M0 4.86833L4.90667 0L78.5833 73.6767L73.715 78.5833L62.215 67.0833H59.4167V74.75H28.75V67.0833H9.58333C7.55001 67.0833 5.59996 66.2756 4.16218 64.8378C2.7244 63.4 1.91667 61.45 1.91667 59.4167V13.4167C1.91667 11.5 2.56833 9.85167 3.68 8.54833L0 4.86833ZM78.5833 59.4167V13.4167H28.06L20.3933 5.75H78.5833C80.6167 5.75 82.5667 6.55774 84.0045 7.99551C85.4423 9.43329 86.25 11.3833 86.25 13.4167V59.4167C86.25 62.675 84.1417 65.5117 81.2667 66.585L74.06 59.4167H78.5833ZM9.58333 59.4167H54.5483L9.58333 14.4517V59.4167Z" fill="white"/>
</svg>
